<?xml version="1.0" encoding="UTF-8" ?>
<svg version="1.1" width="4096" height="4096" xmlns="http://www.w3.org/2000/svg" shape-rendering="crispEdges">
<rect x="512" y="512" width="128" height="128" fill="#151524" />
<rect x="640" y="512" width="128" height="128" fill="#151524" />
<rect x="768" y="512" width="128" height="128" fill="#151524" />
<rect x="896" y="512" width="128" height="128" fill="#151524" />
<rect x="1024" y="512" width="128" height="128" fill="#151524" />
<rect x="1152" y="512" width="128" height="128" fill="#151524" />
<rect x="1280" y="512" width="128" height="128" fill="#151524" />
<rect x="1408" y="512" width="128" height="128" fill="#151524" />
<rect x="1536" y="512" width="128" height="128" fill="#151524" />
<rect x="1664" y="512" width="128" height="128" fill="#151524" />
<rect x="1792" y="512" width="128" height="128" fill="#151524" />
<rect x="1920" y="512" width="128" height="128" fill="#151524" />
<rect x="2048" y="512" width="128" height="128" fill="#151524" />
<rect x="2176" y="512" width="128" height="128" fill="#151524" />
<rect x="2304" y="512" width="128" height="128" fill="#151524" />
<rect x="2432" y="512" width="128" height="128" fill="#151524" />
<rect x="2560" y="512" width="128" height="128" fill="#151524" />
<rect x="2688" y="512" width="128" height="128" fill="#151524" />
<rect x="2816" y="512" width="128" height="128" fill="#151524" />
<rect x="2944" y="512" width="128" height="128" fill="#151524" />
<rect x="3072" y="512" width="128" height="128" fill="#151524" />
<rect x="3200" y="512" width="128" height="128" fill="#151524" />
<rect x="3328" y="512" width="128" height="128" fill="#151524" />
<rect x="3456" y="512" width="128" height="128" fill="#151524" />
<rect x="384" y="640" width="128" height="128" fill="#151524" />
<rect x="512" y="640" width="128" height="128" fill="#151524" />
<rect x="640" y="640" width="128" height="128" fill="#151524" />
<rect x="768" y="640" width="128" height="128" fill="#151524" />
<rect x="896" y="640" width="128" height="128" fill="#151524" />
<rect x="1024" y="640" width="128" height="128" fill="#151524" />
<rect x="1152" y="640" width="128" height="128" fill="#151524" />
<rect x="1280" y="640" width="128" height="128" fill="#151524" />
<rect x="1408" y="640" width="128" height="128" fill="#151524" />
<rect x="1536" y="640" width="128" height="128" fill="#151524" />
<rect x="1664" y="640" width="128" height="128" fill="#151524" />
<rect x="1792" y="640" width="128" height="128" fill="#151524" />
<rect x="1920" y="640" width="128" height="128" fill="#151524" />
<rect x="2048" y="640" width="128" height="128" fill="#151524" />
<rect x="2176" y="640" width="128" height="128" fill="#151524" />
<rect x="2304" y="640" width="128" height="128" fill="#151524" />
<rect x="2432" y="640" width="128" height="128" fill="#151524" />
<rect x="2560" y="640" width="128" height="128" fill="#151524" />
<rect x="2688" y="640" width="128" height="128" fill="#151524" />
<rect x="2816" y="640" width="128" height="128" fill="#151524" />
<rect x="2944" y="640" width="128" height="128" fill="#151524" />
<rect x="3072" y="640" width="128" height="128" fill="#151524" />
<rect x="3200" y="640" width="128" height="128" fill="#151524" />
<rect x="3328" y="640" width="128" height="128" fill="#151524" />
<rect x="3456" y="640" width="128" height="128" fill="#151524" />
<rect x="3584" y="640" width="128" height="128" fill="#151524" />
<rect x="256" y="768" width="128" height="128" fill="#151524" />
<rect x="384" y="768" width="128" height="128" fill="#151524" />
<rect x="512" y="768" width="128" height="128" fill="#151524" />
<rect x="3456" y="768" width="128" height="128" fill="#151524" />
<rect x="3584" y="768" width="128" height="128" fill="#151524" />
<rect x="3712" y="768" width="128" height="128" fill="#151524" />
<rect x="256" y="896" width="128" height="128" fill="#151524" />
<rect x="384" y="896" width="128" height="128" fill="#151524" />
<rect x="3584" y="896" width="128" height="128" fill="#151524" />
<rect x="3712" y="896" width="128" height="128" fill="#151524" />
<rect x="256" y="1024" width="128" height="128" fill="#151524" />
<rect x="384" y="1024" width="128" height="128" fill="#151524" />
<rect x="3584" y="1024" width="128" height="128" fill="#151524" />
<rect x="3712" y="1024" width="128" height="128" fill="#151524" />
<rect x="256" y="1152" width="128" height="128" fill="#151524" />
<rect x="384" y="1152" width="128" height="128" fill="#151524" />
<rect x="3584" y="1152" width="128" height="128" fill="#151524" />
<rect x="3712" y="1152" width="128" height="128" fill="#151524" />
<rect x="256" y="1280" width="128" height="128" fill="#151524" />
<rect x="384" y="1280" width="128" height="128" fill="#151524" />
<rect x="3584" y="1280" width="128" height="128" fill="#151524" />
<rect x="3712" y="1280" width="128" height="128" fill="#151524" />
<rect x="256" y="1408" width="128" height="128" fill="#151524" />
<rect x="384" y="1408" width="128" height="128" fill="#151524" />
<rect x="1152" y="1408" width="128" height="128" fill="#151524" />
<rect x="1280" y="1408" width="128" height="128" fill="#151524" />
<rect x="1408" y="1408" width="128" height="128" fill="#151524" />
<rect x="2560" y="1408" width="128" height="128" fill="#151524" />
<rect x="2688" y="1408" width="128" height="128" fill="#151524" />
<rect x="2816" y="1408" width="128" height="128" fill="#151524" />
<rect x="3584" y="1408" width="128" height="128" fill="#151524" />
<rect x="3712" y="1408" width="128" height="128" fill="#151524" />
<rect x="256" y="1536" width="128" height="128" fill="#151524" />
<rect x="384" y="1536" width="128" height="128" fill="#151524" />
<rect x="1152" y="1536" width="128" height="128" fill="#151524" />
<rect x="1280" y="1536" width="128" height="128" fill="#151524" />
<rect x="1408" y="1536" width="128" height="128" fill="#151524" />
<rect x="2560" y="1536" width="128" height="128" fill="#151524" />
<rect x="2688" y="1536" width="128" height="128" fill="#151524" />
<rect x="2816" y="1536" width="128" height="128" fill="#151524" />
<rect x="3584" y="1536" width="128" height="128" fill="#151524" />
<rect x="3712" y="1536" width="128" height="128" fill="#151524" />
<rect x="256" y="1664" width="128" height="128" fill="#151524" />
<rect x="384" y="1664" width="128" height="128" fill="#151524" />
<rect x="1152" y="1664" width="128" height="128" fill="#151524" />
<rect x="1280" y="1664" width="128" height="128" fill="#151524" />
<rect x="1408" y="1664" width="128" height="128" fill="#151524" />
<rect x="2560" y="1664" width="128" height="128" fill="#151524" />
<rect x="2688" y="1664" width="128" height="128" fill="#151524" />
<rect x="2816" y="1664" width="128" height="128" fill="#151524" />
<rect x="3584" y="1664" width="128" height="128" fill="#151524" />
<rect x="3712" y="1664" width="128" height="128" fill="#151524" />
<rect x="256" y="1792" width="128" height="128" fill="#151524" />
<rect x="384" y="1792" width="128" height="128" fill="#151524" />
<rect x="1152" y="1792" width="128" height="128" fill="#151524" />
<rect x="1280" y="1792" width="128" height="128" fill="#151524" />
<rect x="1408" y="1792" width="128" height="128" fill="#151524" />
<rect x="2560" y="1792" width="128" height="128" fill="#151524" />
<rect x="2688" y="1792" width="128" height="128" fill="#151524" />
<rect x="2816" y="1792" width="128" height="128" fill="#151524" />
<rect x="3584" y="1792" width="128" height="128" fill="#151524" />
<rect x="3712" y="1792" width="128" height="128" fill="#151524" />
<rect x="256" y="1920" width="128" height="128" fill="#151524" />
<rect x="384" y="1920" width="128" height="128" fill="#151524" />
<rect x="1152" y="1920" width="128" height="128" fill="#151524" />
<rect x="1280" y="1920" width="128" height="128" fill="#151524" />
<rect x="1408" y="1920" width="128" height="128" fill="#151524" />
<rect x="2560" y="1920" width="128" height="128" fill="#151524" />
<rect x="2688" y="1920" width="128" height="128" fill="#151524" />
<rect x="2816" y="1920" width="128" height="128" fill="#151524" />
<rect x="3584" y="1920" width="128" height="128" fill="#151524" />
<rect x="3712" y="1920" width="128" height="128" fill="#151524" />
<rect x="256" y="2048" width="128" height="128" fill="#151524" />
<rect x="384" y="2048" width="128" height="128" fill="#151524" />
<rect x="1152" y="2048" width="128" height="128" fill="#151524" />
<rect x="1280" y="2048" width="128" height="128" fill="#151524" />
<rect x="1408" y="2048" width="128" height="128" fill="#151524" />
<rect x="2560" y="2048" width="128" height="128" fill="#151524" />
<rect x="2688" y="2048" width="128" height="128" fill="#151524" />
<rect x="2816" y="2048" width="128" height="128" fill="#151524" />
<rect x="3584" y="2048" width="128" height="128" fill="#151524" />
<rect x="3712" y="2048" width="128" height="128" fill="#151524" />
<rect x="256" y="2176" width="128" height="128" fill="#151524" />
<rect x="384" y="2176" width="128" height="128" fill="#151524" />
<rect x="1152" y="2176" width="128" height="128" fill="#151524" />
<rect x="1280" y="2176" width="128" height="128" fill="#151524" />
<rect x="1408" y="2176" width="128" height="128" fill="#151524" />
<rect x="2560" y="2176" width="128" height="128" fill="#151524" />
<rect x="2688" y="2176" width="128" height="128" fill="#151524" />
<rect x="2816" y="2176" width="128" height="128" fill="#151524" />
<rect x="3584" y="2176" width="128" height="128" fill="#151524" />
<rect x="3712" y="2176" width="128" height="128" fill="#151524" />
<rect x="256" y="2304" width="128" height="128" fill="#151524" />
<rect x="384" y="2304" width="128" height="128" fill="#151524" />
<rect x="1152" y="2304" width="128" height="128" fill="#151524" />
<rect x="1280" y="2304" width="128" height="128" fill="#151524" />
<rect x="1408" y="2304" width="128" height="128" fill="#151524" />
<rect x="2560" y="2304" width="128" height="128" fill="#151524" />
<rect x="2688" y="2304" width="128" height="128" fill="#151524" />
<rect x="2816" y="2304" width="128" height="128" fill="#151524" />
<rect x="3584" y="2304" width="128" height="128" fill="#151524" />
<rect x="3712" y="2304" width="128" height="128" fill="#151524" />
<rect x="256" y="2432" width="128" height="128" fill="#151524" />
<rect x="384" y="2432" width="128" height="128" fill="#151524" />
<rect x="1152" y="2432" width="128" height="128" fill="#151524" />
<rect x="1280" y="2432" width="128" height="128" fill="#151524" />
<rect x="1408" y="2432" width="128" height="128" fill="#151524" />
<rect x="2560" y="2432" width="128" height="128" fill="#151524" />
<rect x="2688" y="2432" width="128" height="128" fill="#151524" />
<rect x="2816" y="2432" width="128" height="128" fill="#151524" />
<rect x="3584" y="2432" width="128" height="128" fill="#151524" />
<rect x="3712" y="2432" width="128" height="128" fill="#151524" />
<rect x="256" y="2560" width="128" height="128" fill="#151524" />
<rect x="384" y="2560" width="128" height="128" fill="#151524" />
<rect x="3584" y="2560" width="128" height="128" fill="#151524" />
<rect x="3712" y="2560" width="128" height="128" fill="#151524" />
<rect x="256" y="2688" width="128" height="128" fill="#151524" />
<rect x="384" y="2688" width="128" height="128" fill="#151524" />
<rect x="3584" y="2688" width="128" height="128" fill="#151524" />
<rect x="3712" y="2688" width="128" height="128" fill="#151524" />
<rect x="256" y="2816" width="128" height="128" fill="#151524" />
<rect x="384" y="2816" width="128" height="128" fill="#151524" />
<rect x="3584" y="2816" width="128" height="128" fill="#151524" />
<rect x="3712" y="2816" width="128" height="128" fill="#151524" />
<rect x="256" y="2944" width="128" height="128" fill="#151524" />
<rect x="384" y="2944" width="128" height="128" fill="#151524" />
<rect x="3584" y="2944" width="128" height="128" fill="#151524" />
<rect x="3712" y="2944" width="128" height="128" fill="#151524" />
<rect x="256" y="3072" width="128" height="128" fill="#151524" />
<rect x="384" y="3072" width="128" height="128" fill="#151524" />
<rect x="3584" y="3072" width="128" height="128" fill="#151524" />
<rect x="3712" y="3072" width="128" height="128" fill="#151524" />
<rect x="256" y="3200" width="128" height="128" fill="#151524" />
<rect x="384" y="3200" width="128" height="128" fill="#151524" />
<rect x="3584" y="3200" width="128" height="128" fill="#151524" />
<rect x="3712" y="3200" width="128" height="128" fill="#151524" />
<rect x="256" y="3328" width="128" height="128" fill="#151524" />
<rect x="384" y="3328" width="128" height="128" fill="#151524" />
<rect x="512" y="3328" width="128" height="128" fill="#151524" />
<rect x="3456" y="3328" width="128" height="128" fill="#151524" />
<rect x="3584" y="3328" width="128" height="128" fill="#151524" />
<rect x="3712" y="3328" width="128" height="128" fill="#151524" />
<rect x="256" y="3456" width="128" height="128" fill="#151524" />
<rect x="384" y="3456" width="128" height="128" fill="#151524" />
<rect x="512" y="3456" width="128" height="128" fill="#151524" />
<rect x="640" y="3456" width="128" height="128" fill="#151524" />
<rect x="768" y="3456" width="128" height="128" fill="#151524" />
<rect x="896" y="3456" width="128" height="128" fill="#151524" />
<rect x="1024" y="3456" width="128" height="128" fill="#151524" />
<rect x="1152" y="3456" width="128" height="128" fill="#151524" />
<rect x="1280" y="3456" width="128" height="128" fill="#151524" />
<rect x="1408" y="3456" width="128" height="128" fill="#151524" />
<rect x="1536" y="3456" width="128" height="128" fill="#151524" />
<rect x="1664" y="3456" width="128" height="128" fill="#151524" />
<rect x="1792" y="3456" width="128" height="128" fill="#151524" />
<rect x="1920" y="3456" width="128" height="128" fill="#151524" />
<rect x="2048" y="3456" width="128" height="128" fill="#151524" />
<rect x="2176" y="3456" width="128" height="128" fill="#151524" />
<rect x="2304" y="3456" width="128" height="128" fill="#151524" />
<rect x="2432" y="3456" width="128" height="128" fill="#151524" />
<rect x="2560" y="3456" width="128" height="128" fill="#151524" />
<rect x="2688" y="3456" width="128" height="128" fill="#151524" />
<rect x="2816" y="3456" width="128" height="128" fill="#151524" />
<rect x="2944" y="3456" width="128" height="128" fill="#151524" />
<rect x="3072" y="3456" width="128" height="128" fill="#151524" />
<rect x="3200" y="3456" width="128" height="128" fill="#151524" />
<rect x="3328" y="3456" width="128" height="128" fill="#151524" />
<rect x="3456" y="3456" width="128" height="128" fill="#151524" />
<rect x="3584" y="3456" width="128" height="128" fill="#151524" />
<rect x="3712" y="3456" width="128" height="128" fill="#151524" />
<rect x="256" y="3584" width="128" height="128" fill="#151524" />
<rect x="384" y="3584" width="128" height="128" fill="#151524" />
<rect x="512" y="3584" width="128" height="128" fill="#151524" />
<rect x="640" y="3584" width="128" height="128" fill="#151524" />
<rect x="768" y="3584" width="128" height="128" fill="#151524" />
<rect x="896" y="3584" width="128" height="128" fill="#151524" />
<rect x="1024" y="3584" width="128" height="128" fill="#151524" />
<rect x="1152" y="3584" width="128" height="128" fill="#151524" />
<rect x="1280" y="3584" width="128" height="128" fill="#151524" />
<rect x="1408" y="3584" width="128" height="128" fill="#151524" />
<rect x="1536" y="3584" width="128" height="128" fill="#151524" />
<rect x="1664" y="3584" width="128" height="128" fill="#151524" />
<rect x="1792" y="3584" width="128" height="128" fill="#151524" />
<rect x="1920" y="3584" width="128" height="128" fill="#151524" />
<rect x="2048" y="3584" width="128" height="128" fill="#151524" />
<rect x="2176" y="3584" width="128" height="128" fill="#151524" />
<rect x="2304" y="3584" width="128" height="128" fill="#151524" />
<rect x="2432" y="3584" width="128" height="128" fill="#151524" />
<rect x="2560" y="3584" width="128" height="128" fill="#151524" />
<rect x="2688" y="3584" width="128" height="128" fill="#151524" />
<rect x="2816" y="3584" width="128" height="128" fill="#151524" />
<rect x="2944" y="3584" width="128" height="128" fill="#151524" />
<rect x="3072" y="3584" width="128" height="128" fill="#151524" />
<rect x="3200" y="3584" width="128" height="128" fill="#151524" />
<rect x="3328" y="3584" width="128" height="128" fill="#151524" />
<rect x="3456" y="3584" width="128" height="128" fill="#151524" />
<rect x="3584" y="3584" width="128" height="128" fill="#151524" />
<rect x="3712" y="3584" width="128" height="128" fill="#151524" />
<rect x="256" y="3712" width="128" height="128" fill="#151524" />
<rect x="384" y="3712" width="128" height="128" fill="#151524" />
<rect x="512" y="3712" width="128" height="128" fill="#151524" />
<rect x="640" y="3712" width="128" height="128" fill="#151524" />
<rect x="768" y="3712" width="128" height="128" fill="#151524" />
<rect x="896" y="3712" width="128" height="128" fill="#151524" />
<rect x="1024" y="3712" width="128" height="128" fill="#151524" />
<rect x="1152" y="3712" width="128" height="128" fill="#151524" />
<rect x="1280" y="3712" width="128" height="128" fill="#151524" />
<rect x="1408" y="3712" width="128" height="128" fill="#151524" />
<rect x="1536" y="3712" width="128" height="128" fill="#151524" />
<rect x="1664" y="3712" width="128" height="128" fill="#151524" />
<rect x="1792" y="3712" width="128" height="128" fill="#151524" />
<rect x="1920" y="3712" width="128" height="128" fill="#151524" />
<rect x="2048" y="3712" width="128" height="128" fill="#151524" />
<rect x="2176" y="3712" width="128" height="128" fill="#151524" />
<rect x="2304" y="3712" width="128" height="128" fill="#151524" />
<rect x="2432" y="3712" width="128" height="128" fill="#151524" />
<rect x="2560" y="3712" width="128" height="128" fill="#151524" />
<rect x="2688" y="3712" width="128" height="128" fill="#151524" />
<rect x="2816" y="3712" width="128" height="128" fill="#151524" />
<rect x="2944" y="3712" width="128" height="128" fill="#151524" />
<rect x="3072" y="3712" width="128" height="128" fill="#151524" />
<rect x="3200" y="3712" width="128" height="128" fill="#151524" />
<rect x="3328" y="3712" width="128" height="128" fill="#151524" />
<rect x="3456" y="3712" width="128" height="128" fill="#151524" />
<rect x="3584" y="3712" width="128" height="128" fill="#151524" />
<rect x="3712" y="3712" width="128" height="128" fill="#151524" />
<rect x="384" y="3840" width="128" height="128" fill="#151524" />
<rect x="512" y="3840" width="128" height="128" fill="#151524" />
<rect x="640" y="3840" width="128" height="128" fill="#151524" />
<rect x="768" y="3840" width="128" height="128" fill="#151524" />
<rect x="896" y="3840" width="128" height="128" fill="#151524" />
<rect x="1024" y="3840" width="128" height="128" fill="#151524" />
<rect x="1152" y="3840" width="128" height="128" fill="#151524" />
<rect x="1280" y="3840" width="128" height="128" fill="#151524" />
<rect x="1408" y="3840" width="128" height="128" fill="#151524" />
<rect x="1536" y="3840" width="128" height="128" fill="#151524" />
<rect x="1664" y="3840" width="128" height="128" fill="#151524" />
<rect x="1792" y="3840" width="128" height="128" fill="#151524" />
<rect x="1920" y="3840" width="128" height="128" fill="#151524" />
<rect x="2048" y="3840" width="128" height="128" fill="#151524" />
<rect x="2176" y="3840" width="128" height="128" fill="#151524" />
<rect x="2304" y="3840" width="128" height="128" fill="#151524" />
<rect x="2432" y="3840" width="128" height="128" fill="#151524" />
<rect x="2560" y="3840" width="128" height="128" fill="#151524" />
<rect x="2688" y="3840" width="128" height="128" fill="#151524" />
<rect x="2816" y="3840" width="128" height="128" fill="#151524" />
<rect x="2944" y="3840" width="128" height="128" fill="#151524" />
<rect x="3072" y="3840" width="128" height="128" fill="#151524" />
<rect x="3200" y="3840" width="128" height="128" fill="#151524" />
<rect x="3328" y="3840" width="128" height="128" fill="#151524" />
<rect x="3456" y="3840" width="128" height="128" fill="#151524" />
<rect x="3584" y="3840" width="128" height="128" fill="#151524" />
<rect x="512" y="3968" width="128" height="128" fill="#151524" />
<rect x="640" y="3968" width="128" height="128" fill="#151524" />
<rect x="768" y="3968" width="128" height="128" fill="#151524" />
<rect x="896" y="3968" width="128" height="128" fill="#151524" />
<rect x="1024" y="3968" width="128" height="128" fill="#151524" />
<rect x="1152" y="3968" width="128" height="128" fill="#151524" />
<rect x="1280" y="3968" width="128" height="128" fill="#151524" />
<rect x="1408" y="3968" width="128" height="128" fill="#151524" />
<rect x="1536" y="3968" width="128" height="128" fill="#151524" />
<rect x="1664" y="3968" width="128" height="128" fill="#151524" />
<rect x="1792" y="3968" width="128" height="128" fill="#151524" />
<rect x="1920" y="3968" width="128" height="128" fill="#151524" />
<rect x="2048" y="3968" width="128" height="128" fill="#151524" />
<rect x="2176" y="3968" width="128" height="128" fill="#151524" />
<rect x="2304" y="3968" width="128" height="128" fill="#151524" />
<rect x="2432" y="3968" width="128" height="128" fill="#151524" />
<rect x="2560" y="3968" width="128" height="128" fill="#151524" />
<rect x="2688" y="3968" width="128" height="128" fill="#151524" />
<rect x="2816" y="3968" width="128" height="128" fill="#151524" />
<rect x="2944" y="3968" width="128" height="128" fill="#151524" />
<rect x="3072" y="3968" width="128" height="128" fill="#151524" />
<rect x="3200" y="3968" width="128" height="128" fill="#151524" />
<rect x="3328" y="3968" width="128" height="128" fill="#151524" />
<rect x="3456" y="3968" width="128" height="128" fill="#151524" />
</svg>